<svg width="546" height="546" viewBox="0 0 546 546" fill="none" xmlns="http://www.w3.org/2000/svg">
<path fill-rule="evenodd" clip-rule="evenodd" d="M6.60205 328.442C-23.9134 181.288 70.6406 37.2591 217.794 6.74366C364.948 -23.7718 508.977 70.7822 539.493 217.936C570.008 365.09 475.454 509.119 328.301 539.634C192.212 567.855 56.728 488.986 14.0685 356.711" fill="#CCCCCC"/>
<path d="M6.60205 328.442C-23.9134 181.288 70.6406 37.2591 217.794 6.74366C364.948 -23.7718 508.977 70.7822 539.493 217.936C570.008 365.09 475.454 509.119 328.301 539.634C192.212 567.855 56.728 488.986 14.0685 356.711" stroke="black" stroke-width="1.0103"/>
<path d="M127.63 43.0495L113.721 67.0751L135.217 46.843L145.333 40.5205L151.656 51.901C141.766 58.3586 132.066 65.1064 122.572 72.1331C114.846 77.8517 107.256 83.755 99.811 89.8361L92.224 110.068H99.811L109.927 102.481L121.308 73.3976L147.862 60.7526H161.772L165.565 50.6365L202.236 48.1075L213.616 45.5785L235.113 50.6365L252.816 60.7526L260.403 70.8686L271.783 77.1911V97.4231L252.816 108.804L232.584 110.068L224.997 121.449L222.468 131.565L236.377 139.152L232.584 166.971L211.087 179.616L206.029 183.409L133.953 192.261L118.779 202.377L123.837 228.931L151.656 242.841V258.015L157.978 245.37L166.83 252.957V271.924L160.507 285.834L175.681 295.95L193.384 303.537L194.649 308.595C193.487 301.412 192.222 294.245 190.855 287.098C190.048 282.876 189.205 278.661 188.326 274.453L195.913 269.395L211.087 274.453L223.732 290.892V307.331L238.906 304.802L246.493 317.447L243.964 330.092L236.377 336.414L232.584 346.53L242.7 356.646L230.055 381.936L199.707 395.846L189.591 399.639L185.797 418.607L161.772 414.813L156.714 408.491L159.243 402.168L163.036 400.904L151.656 398.375L142.804 403.433H137.746L128.895 407.226L116.25 409.755L102.34 398.375L98.5465 392.052L97.282 381.936L92.224 376.878L90.9595 365.498L97.282 361.704L109.927 356.646L101.076 331.356L80.8435 346.53L65.6695 350.324L60.6115 345.266L50.4955 352.853L32.7924 327.563L23.9409 344.001L12.5604 331.356L13.8249 309.859L21.4119 303.537L12.5604 299.743C10.5415 295.672 8.84832 291.439 7.50238 287.098C4.71797 278.119 3.43041 268.677 3.70886 259.279L2.44434 256.75L10.0314 209.964C12.7919 200.632 15.7432 191.356 18.8829 182.145C23.531 168.508 28.5921 155.011 34.0569 141.681L68.1985 93.6296L104.869 59.488L127.63 43.0495Z" fill="#808080" fill-opacity="0.591346"/>
<path d="M461.458 308.595L486.748 317.447L500.658 298.479V289.628L496.864 275.718L500.658 264.338V255.486L515.832 246.635L514.567 233.989L498.129 221.344L503.187 213.757L490.542 204.906H480.426L455.136 185.938L445.02 190.996L437.433 184.674L438.697 175.822V169.5L417.201 156.855L413.407 131.565L395.704 130.3L380.53 141.681L367.885 144.21L366.621 116.391L317.305 79.7202H286.957H275.576L273.047 88.5717L265.46 106.275L266.725 139.152L260.402 145.474L265.46 163.177L232.583 170.764L223.732 178.351V185.938L208.558 187.203L206.029 199.848L209.822 204.906L184.532 223.873L200.971 240.312L212.351 244.105L233.848 260.544L250.286 255.486L259.138 242.841V231.46L240.17 220.08L227.525 215.022L224.996 209.964L245.228 201.112C252.869 204.797 260.457 208.591 267.989 212.493C274.352 215.789 280.675 219.161 286.957 222.609L305.924 202.377V182.145L302.131 169.5L316.04 165.706L326.156 169.5L314.776 180.88L345.124 242.841L362.827 246.635L352.711 261.809L371.679 273.189L389.382 268.131L402.027 222.609L415.936 230.196L432.375 226.402L431.11 240.312L437.433 247.899L432.375 258.015L433.639 264.338L438.697 278.247L455.136 280.776L467.781 289.628H474.103L465.252 294.686L455.136 298.479L461.458 308.595Z" fill="#999999"/>
<path d="M446.284 159.384L462.723 169.5L480.426 184.674L501.922 172.029L503.187 158.119L509.509 149.268L488.013 123.978L472.839 120.184L456.4 117.655L446.284 130.3V159.384Z" fill="#808080" fill-opacity="0.591346"/>
<path d="M404.556 274.453L423.523 271.924L437.433 285.834L432.375 302.272L428.581 326.298L413.407 330.091L394.44 325.033L380.53 293.421L396.969 274.453H404.556Z" fill="#808080" fill-opacity="0.591346"/>
<path d="M524.683 202.377L527.212 189.732L510.774 183.409L503.187 190.996L510.774 209.964L523.419 215.022L524.683 202.377Z" fill="#808080" fill-opacity="0.591346"/>
<path d="M151.655 261.808L145.332 283.305L140.274 278.247L146.597 270.66L151.655 261.808Z" fill="#B3B3B3"/>
<path d="M161.771 327.562L154.184 328.827V337.678L144.068 346.53L135.217 349.059L146.597 361.704L151.655 357.911L152.92 346.53L161.771 327.562Z" fill="#CCCCCC" fill-opacity="0.591346"/>
<path fill-rule="evenodd" clip-rule="evenodd" d="M187.351 116.429C185.791 109.591 190.625 102.898 198.147 101.48C205.669 100.062 213.031 104.456 214.591 111.294C216.15 118.132 211.317 124.825 203.795 126.243C196.839 127.554 189.913 123.889 187.733 117.743" fill="#666666"/>
<path fill-rule="evenodd" clip-rule="evenodd" d="M73.4534 193.307C72.3898 187.153 75.6852 181.129 80.8139 179.853C85.9425 178.576 90.9622 182.531 92.0258 188.685C93.0893 194.84 89.7939 200.863 84.6653 202.14C79.9223 203.32 75.2004 200.021 73.7136 194.489" fill="#666666"/>
<path d="M106.133 178.351L103.604 194.79L102.339 230.196L106.133 202.377L114.984 221.344L109.926 201.112L125.1 204.906L113.72 197.319L125.1 188.467L113.72 194.79L117.513 179.616L111.191 193.525L94.7522 182.145L102.339 192.261H92.2232L101.075 194.79L88.4297 207.435L99.8102 201.112L90.9587 218.815C94.3871 213.795 97.7594 208.737 101.075 203.641C104.072 199.035 107.023 194.398 109.926 189.732L106.133 178.351Z" fill="#E6E6E6" fill-opacity="0.591346"/>
<path d="M118.996 99.9521L117.339 110.377L116.511 132.829L118.996 115.188L124.795 127.216L121.481 114.386L131.423 116.792L123.967 111.98L131.423 106.367L123.967 110.377L126.452 100.754L122.31 109.575L111.54 102.358L116.511 108.773H109.883L115.682 110.377L107.397 118.395L114.854 114.386L109.054 125.612C111.3 122.43 113.509 119.222 115.682 115.99C117.645 113.069 119.578 110.129 121.481 107.169L118.996 99.9521Z" fill="#E6E6E6" fill-opacity="0.591346"/>
</svg>
