<?xml version="1.0" encoding="UTF-8" standalone="no"?>
<!-- Created with Inkscape (http://www.inkscape.org/) -->

<svg
   xmlns:dc="http://purl.org/dc/elements/1.1/"
   xmlns:cc="http://creativecommons.org/ns#"
   xmlns:rdf="http://www.w3.org/1999/02/22-rdf-syntax-ns#"
   xmlns:svg="http://www.w3.org/2000/svg"
   xmlns="http://www.w3.org/2000/svg"
   xmlns:sodipodi="http://sodipodi.sourceforge.net/DTD/sodipodi-0.dtd"
   xmlns:inkscape="http://www.inkscape.org/namespaces/inkscape"
   width="210mm"
   height="297mm"
   id="svg2"
   version="1.1"
   inkscape:version="0.48.1 "
   sodipodi:docname="luna.svg">
  <title
     id="title3827">moon clipart </title>
  <defs
     id="defs4">
    <inkscape:path-effect
       is_visible="true"
       id="path-effect3817"
       effect="spiro" />
    <inkscape:path-effect
       effect="spiro"
       id="path-effect3813"
       is_visible="true" />
    <inkscape:path-effect
       effect="spiro"
       id="path-effect3795"
       is_visible="true" />
    <inkscape:path-effect
       effect="spiro"
       id="path-effect3791"
       is_visible="true" />
    <inkscape:path-effect
       effect="spiro"
       id="path-effect3019"
       is_visible="true" />
    <inkscape:path-effect
       effect="spiro"
       id="path-effect3015"
       is_visible="true" />
    <inkscape:path-effect
       effect="spiro"
       id="path-effect3011"
       is_visible="true" />
    <inkscape:path-effect
       effect="spiro"
       id="path-effect3007"
       is_visible="true" />
    <inkscape:path-effect
       effect="spiro"
       id="path-effect3003"
       is_visible="true" />
  </defs>
  <sodipodi:namedview
     id="base"
     pagecolor="#ffffff"
     bordercolor="#666666"
     borderopacity="1.0"
     inkscape:pageopacity="0.0"
     inkscape:pageshadow="2"
     inkscape:zoom="0.39541249"
     inkscape:cx="180.91033"
     inkscape:cy="502.90737"
     inkscape:document-units="px"
     inkscape:current-layer="layer1"
     showgrid="false"
     inkscape:window-width="1366"
     inkscape:window-height="706"
     inkscape:window-x="-8"
     inkscape:window-y="-8"
     inkscape:window-maximized="1" />
  <metadata
     id="metadata7">
    <rdf:RDF>
      <cc:Work
         rdf:about="">
        <dc:format>image/svg+xml</dc:format>
        <dc:type
           rdf:resource="http://purl.org/dc/dcmitype/StillImage" />
        <dc:title>moon clipart </dc:title>
      </cc:Work>
    </rdf:RDF>
  </metadata>
  <g
     inkscape:label="Capa 1"
     inkscape:groupmode="layer"
     id="layer1">
    <g
       id="g3830"
       transform="translate(654.03124,11.240385)">
      <path
         transform="matrix(1.0103031,0,0,1.0103031,-523.43728,199.09942)"
         sodipodi:open="true"
         sodipodi:end="9.1128031"
         sodipodi:start="2.9371194"
         d="M -24.737204,367.31799 C -54.941471,221.66496 38.648244,79.104453 184.30127,48.900186 329.9543,18.695919 472.51481,112.28563 502.71908,257.93866 532.92334,403.59169 439.33363,546.1522 293.6806,576.35647 158.98011,604.28949 24.877555,526.22474 -17.346862,395.2989"
         sodipodi:ry="269.33899"
         sodipodi:rx="269.33899"
         sodipodi:cy="312.62833"
         sodipodi:cx="238.99094"
         id="path2999"
         style="fill:#cccccc;fill-rule:evenodd;stroke:#000000;stroke-width:1px;stroke-linecap:butt;stroke-linejoin:miter;stroke-opacity:1"
         sodipodi:type="arc" />
      <path
         inkscape:connector-curvature="0"
         inkscape:original-d="m -427.40178,284.80928 -13.90952,24.02555 21.49654,-20.23204 10.11601,-6.32251 6.32252,11.38052 -29.08356,20.23204 -22.76104,17.70303 -7.58701,20.23204 7.58701,0 10.11602,-7.58702 11.38052,-29.08355 26.55455,-12.64502 13.90952,0 3.79351,-10.11602 36.67057,-2.52901 11.38052,-2.529 21.49654,5.05801 17.70303,10.11602 7.58701,10.11601 11.38052,6.32252 0,20.23203 -18.96753,11.38052 -20.23204,1.26451 -7.58701,11.38052 -2.529,10.11602 13.90952,7.58701 -3.79351,27.81905 -21.49654,12.64502 -5.058,3.79351 -72.07664,8.85152 -15.17402,10.11601 5.05801,26.55455 27.81905,13.90953 0,15.17403 6.32251,-12.64503 8.85151,7.58702 0,18.96753 -6.32251,13.90953 15.17403,10.11602 17.70303,7.58701 1.2645,5.05801 -3.7935,-21.49654 -2.52901,-12.64502 7.58702,-5.05801 15.17402,5.05801 12.64503,16.43853 0,16.43853 15.17403,-2.52901 7.58701,12.64502 -2.52901,12.64503 -7.58701,6.32251 -3.79351,10.11602 10.11602,10.11602 -12.64502,25.29004 -30.34806,13.90953 -10.11601,3.7935 -3.79351,18.96754 -24.02555,-3.79351 -5.058,-6.32251 2.529,-6.32251 3.79351,-1.2645 -11.38052,-2.52901 -8.85152,5.05801 -5.05801,0 -8.85152,3.79351 -12.64502,2.529 -13.90952,-11.38052 -3.79351,-6.32251 -1.2645,-10.11602 -5.05801,-5.05801 -1.2645,-11.38052 6.32251,-3.7935 12.64502,-5.05801 -8.85152,-25.29005 -20.23203,15.17403 -15.17403,3.7935 -5.05801,-5.058 -10.11602,7.58701 -17.70303,-25.29005 -8.85152,16.43853 -11.38052,-12.64502 1.2645,-21.49654 7.58702,-6.32251 -8.85152,-3.79351 c 0,0 -5.05801,-6.32251 -5.05801,-12.64502 0,-6.32251 -3.7935,-27.81905 -3.7935,-27.81905 l -1.26451,-2.52901 7.58702,-46.78658 8.85151,-27.81905 15.17403,-40.46408 34.14156,-48.05108 36.67057,-34.14157 z"
         inkscape:path-effect="#path-effect3003"
         id="path3001"
         d="m -427.40178,284.80928 -13.90952,24.02555 21.49654,-20.23204 10.11601,-6.32251 6.32252,11.38052 c -9.88969,6.45752 -19.58978,13.2054 -29.08356,20.23204 -7.72654,5.71864 -15.31644,11.6219 -22.76104,17.70303 l -7.58701,20.23204 7.58701,0 10.11602,-7.58702 11.38052,-29.08355 26.55455,-12.64502 13.90952,0 3.79351,-10.11602 36.67057,-2.52901 11.38052,-2.529 21.49654,5.05801 17.70303,10.11602 7.58701,10.11601 11.38052,6.32252 0,20.23203 -18.96753,11.38052 -20.23204,1.26451 -7.58701,11.38052 -2.529,10.11602 13.90952,7.58701 -3.79351,27.81905 -21.49654,12.64502 -5.058,3.79351 -72.07664,8.85152 -15.17402,10.11601 5.05801,26.55455 27.81905,13.90953 0,15.17403 6.32251,-12.64503 8.85151,7.58702 0,18.96753 -6.32251,13.90953 15.17403,10.11602 17.70303,7.58701 1.2645,5.05801 c -1.16205,-7.18309 -2.42673,-14.34958 -3.7935,-21.49654 -0.80741,-4.22202 -1.65046,-8.43723 -2.52901,-12.64502 l 7.58702,-5.05801 15.17402,5.05801 12.64503,16.43853 0,16.43853 15.17403,-2.52901 7.58701,12.64502 -2.52901,12.64503 -7.58701,6.32251 -3.79351,10.11602 10.11602,10.11602 -12.64502,25.29004 -30.34806,13.90953 -10.11601,3.7935 -3.79351,18.96754 -24.02555,-3.79351 -5.058,-6.32251 2.529,-6.32251 3.79351,-1.2645 -11.38052,-2.52901 -8.85152,5.05801 -5.05801,0 -8.85152,3.79351 -12.64502,2.529 -13.90952,-11.38052 -3.79351,-6.32251 -1.2645,-10.11602 -5.05801,-5.05801 -1.2645,-11.38052 6.32251,-3.7935 12.64502,-5.05801 -8.85152,-25.29005 -20.23203,15.17403 -15.17403,3.7935 -5.05801,-5.058 -10.11602,7.58701 -17.70303,-25.29005 -8.85152,16.43853 -11.38052,-12.64502 1.2645,-21.49654 7.58702,-6.32251 -8.85152,-3.79351 c -2.0189,-4.07146 -3.71207,-8.30438 -5.05801,-12.64502 -2.78441,-8.97973 -4.07195,-18.42166 -3.7935,-27.81905 l -1.26451,-2.52901 7.58702,-46.78658 c 2.76049,-9.33205 5.71181,-18.60765 8.85151,-27.81905 4.64817,-13.63702 9.70927,-27.13328 15.17403,-40.46408 l 34.14156,-48.05108 36.67057,-34.14157 22.76104,-16.43853"
         style="fill:#808080;fill-opacity:0.59134617;stroke:none" />
      <path
         inkscape:connector-curvature="0"
         inkscape:original-d="m -93.573169,550.35477 25.29004,8.85151 13.90953,-18.96753 0,-8.85152 -3.79351,-13.90952 3.79351,-11.38052 0,-8.85152 15.17403,-8.85151 -1.26451,-12.64503 -16.43853,-12.64502 5.05801,-7.58701 -12.64502,-8.85152 -10.11602,0 -25.29004,-18.96754 -10.116021,5.05801 -7.58702,-6.32251 1.26451,-8.85151 0,-6.32252 -21.49654,-12.64502 -3.79351,-25.29004 -17.70303,-1.26451 -15.17403,11.38052 -12.64502,2.52901 -1.26451,-27.81905 -49.31559,-36.67057 -30.34805,0 -11.38052,0 -2.52901,8.85152 -7.58701,17.70303 1.2645,32.87706 -6.32251,6.32251 5.05801,17.70303 -32.87706,7.58702 -8.85152,7.58701 0,7.58701 -15.17402,1.26451 -2.52901,12.64502 3.79351,5.05801 -25.29005,18.96753 16.43853,16.43853 11.38052,3.79351 21.49654,16.43853 16.43853,-5.05801 8.85152,-12.64502 0,-11.38052 -18.96754,-11.38052 -12.64502,-5.05801 -2.529,-5.05801 20.23203,-8.85152 c 0,0 16.43853,7.58702 22.76104,11.38052 6.32252,3.79351 18.96754,10.11602 18.96754,10.11602 l 18.96753,-20.23204 0,-20.23203 -3.7935,-12.64503 13.90952,-3.7935 10.11602,3.7935 -11.38052,11.38053 30.34806,61.96061 17.70303,3.79351 -10.11602,15.17402 18.96753,11.38052 17.70304,-5.05801 12.64502,-45.52208 13.90952,7.58702 16.43853,-3.79351 -1.2645,13.90952 6.32251,7.58702 -5.05801,10.11602 1.26451,6.32251 5.05801,13.90952 16.438531,2.52901 12.64502,8.85151 6.32251,0 -8.85152,5.05801 -10.11601,3.79351 z"
         inkscape:path-effect="#path-effect3007"
         id="path3005"
         d="m -93.573169,550.35477 25.29004,8.85151 13.90953,-18.96753 0,-8.85152 -3.79351,-13.90952 3.79351,-11.38052 0,-8.85152 15.17403,-8.85151 -1.26451,-12.64503 -16.43853,-12.64502 5.05801,-7.58701 -12.64502,-8.85152 -10.11602,0 -25.29004,-18.96754 -10.116021,5.05801 -7.58702,-6.32251 1.26451,-8.85151 0,-6.32252 -21.49654,-12.64502 -3.79351,-25.29004 -17.70303,-1.26451 -15.17403,11.38052 -12.64502,2.52901 -1.26451,-27.81905 -49.31559,-36.67057 -30.34805,0 -11.38052,0 -2.52901,8.85152 -7.58701,17.70303 1.2645,32.87706 -6.32251,6.32251 5.05801,17.70303 -32.87706,7.58702 -8.85152,7.58701 0,7.58701 -15.17402,1.26451 -2.52901,12.64502 3.79351,5.05801 -25.29005,18.96753 16.43853,16.43853 11.38052,3.79351 21.49654,16.43853 16.43853,-5.05801 8.85152,-12.64502 0,-11.38052 -18.96754,-11.38052 -12.64502,-5.05801 -2.529,-5.05801 20.23203,-8.85152 c 7.6406,3.68504 15.22864,7.47906 22.76104,11.38052 6.36283,3.29567 12.68596,6.66801 18.96754,10.11602 l 18.96753,-20.23204 0,-20.23203 -3.7935,-12.64503 13.90952,-3.7935 10.11602,3.7935 -11.38052,11.38053 30.34806,61.96061 17.70303,3.79351 -10.11602,15.17402 18.96753,11.38052 17.70304,-5.05801 12.64502,-45.52208 13.90952,7.58702 16.43853,-3.79351 -1.2645,13.90952 6.32251,7.58702 -5.05801,10.11602 1.26451,6.32251 5.05801,13.90952 16.438531,2.52901 12.64502,8.85151 6.32251,0 -8.85152,5.05801 -10.11601,3.79351 6.32251,10.11602"
         style="fill:#999999;stroke:none" />
      <path
         inkscape:connector-curvature="0"
         inkscape:original-d="m -108.7472,401.1435 16.438531,10.11602 17.70303,15.17402 21.49654,-12.64502 1.2645,-13.90952 6.32252,-8.85152 -21.49654,-25.29005 -15.17403,-3.7935 -16.438529,-2.52901 -10.116022,12.64503 z"
         inkscape:path-effect="#path-effect3011"
         id="path3009"
         d="m -108.7472,401.1435 16.438531,10.11602 17.70303,15.17402 21.49654,-12.64502 1.2645,-13.90952 6.32252,-8.85152 -21.49654,-25.29005 -15.17403,-3.7935 -16.438529,-2.52901 -10.116022,12.64503 0,29.08355"
         style="fill:#808080;fill-opacity:0.59134617;stroke:none" />
      <path
         inkscape:connector-curvature="0"
         inkscape:original-d="m -150.47578,516.2132 18.96754,-2.529 13.90952,13.90952 -5.05801,16.43853 -3.7935,24.02555 -15.17403,3.7935 -18.96753,-5.05801 -13.90953,-31.61255 16.43853,-18.96754 z"
         inkscape:path-effect="#path-effect3015"
         id="path3013"
         d="m -150.47578,516.2132 18.96754,-2.529 13.90952,13.90952 -5.05801,16.43853 -3.7935,24.02555 -15.17403,3.7935 -18.96753,-5.05801 -13.90953,-31.61255 16.43853,-18.96754 7.58701,0"
         style="fill:#808080;fill-opacity:0.59134617;stroke:none" />
      <path
         inkscape:connector-curvature="0"
         inkscape:original-d="m -30.348052,444.13657 2.529,-12.64502 -16.43853,-6.32251 -7.58701,7.58701 7.58701,18.96754 12.64502,5.05801 z"
         inkscape:path-effect="#path-effect3019"
         id="path3017"
         d="m -30.348052,444.13657 2.529,-12.64502 -16.43853,-6.32251 -7.58701,7.58701 7.58701,18.96754 12.64502,5.05801 1.26451,-12.64503"
         style="fill:#808080;fill-opacity:0.59134617;stroke:none" />
      <path
         inkscape:connector-curvature="0"
         inkscape:original-d="m -403.37624,503.56818 -6.32251,21.49654 -5.05801,-5.05801 6.32251,-7.58702 z"
         inkscape:path-effect="#path-effect3791"
         id="path3789"
         d="m -403.37624,503.56818 -6.32251,21.49654 -5.05801,-5.05801 6.32251,-7.58702 5.05801,-8.85151"
         style="fill:#b3b3b3;stroke:none" />
      <path
         inkscape:connector-curvature="0"
         inkscape:original-d="m -393.26022,569.3223 -7.58701,1.2645 0,8.85152 -10.11602,8.85152 -8.85152,2.529 11.38052,12.64502 5.05801,-3.7935 1.2645,-11.38052 z"
         inkscape:path-effect="#path-effect3795"
         id="path3793"
         d="m -393.26022,569.3223 -7.58701,1.2645 0,8.85152 -10.11602,8.85152 -8.85152,2.529 11.38052,12.64502 5.05801,-3.7935 1.2645,-11.38052 8.85152,-18.96754"
         style="fill:#cccccc;fill-opacity:0.59134617;stroke:none" />
      <path
         sodipodi:open="true"
         sodipodi:end="9.1128031"
         sodipodi:start="2.9371194"
         d="m -367.6804,358.18899 c -1.55985,-6.83817 3.27343,-13.53115 10.79541,-14.94919 7.52199,-1.41805 14.88427,2.97584 16.44411,9.81401 1.55985,6.83817 -3.27342,13.53115 -10.79541,14.94919 -6.95636,1.31141 -13.88185,-2.3536 -16.06245,-8.50035"
         sodipodi:ry="12.645023"
         sodipodi:rx="13.909525"
         sodipodi:cy="355.6214"
         sodipodi:cx="-354.06064"
         id="path3797"
         style="fill:#666666;fill-rule:evenodd;stroke:none"
         sodipodi:type="arc" />
      <path
         sodipodi:open="true"
         sodipodi:end="9.1128031"
         sodipodi:start="2.9371194"
         d="m -481.57783,435.06687 c -1.06353,-6.15435 2.23188,-12.17803 7.36051,-13.45427 5.12863,-1.27624 10.14837,2.67826 11.2119,8.83261 1.06353,6.15436 -2.23189,12.17804 -7.36051,13.45428 -4.74298,1.18026 -9.4649,-2.11825 -10.95168,-7.65032"
         sodipodi:ry="11.380521"
         sodipodi:rx="9.4837675"
         sodipodi:cy="432.75604"
         sodipodi:cx="-472.29163"
         id="path3799"
         style="fill:#666666;fill-rule:evenodd;stroke:none"
         sodipodi:type="arc" />
      <path
         inkscape:connector-curvature="0"
         inkscape:original-d="m -448.89832,420.11103 -2.529,16.43853 -1.2645,35.40607 3.7935,-27.81905 8.85152,18.96753 -5.05801,-20.23204 15.17403,3.79351 -11.38052,-7.58701 11.38052,-8.85152 -11.38052,6.32251 3.79351,-15.17402 -6.32252,13.90952 -16.43853,-11.38052 7.58702,10.11602 -10.11602,0 8.85152,2.529 -12.64503,12.64503 11.38052,-6.32252 -8.85151,17.70304 10.11602,-15.17403 8.85151,-13.90953 z"
         inkscape:path-effect="#path-effect3813"
         id="path3811"
         d="m -448.89832,420.11103 -2.529,16.43853 -1.2645,35.40607 3.7935,-27.81905 8.85152,18.96753 -5.05801,-20.23204 15.17403,3.79351 -11.38052,-7.58701 11.38052,-8.85152 -11.38052,6.32251 3.79351,-15.17402 -6.32252,13.90952 -16.43853,-11.38052 7.58702,10.11602 -10.11602,0 8.85152,2.529 -12.64503,12.64503 11.38052,-6.32252 -8.85151,17.70304 c 3.42838,-5.02012 6.80067,-10.07856 10.11602,-15.17403 2.99724,-4.60655 5.94794,-9.24337 8.85151,-13.90953 l -3.79351,-11.38052"
         style="fill:#e6e6e6;fill-opacity:0.59134617;stroke:none" />
      <path
         style="fill:#e6e6e6;fill-opacity:0.59134617;stroke:none"
         d="m -436.03528,341.71189 -1.65693,10.42443 -0.82847,22.45264 2.4854,-17.64135 5.79927,12.02819 -3.31387,-12.83008 9.94161,2.40564 -7.45621,-4.81127 7.45621,-5.61316 -7.45621,4.00939 2.48541,-9.62255 -4.14234,8.82068 -10.77008,-7.21692 4.97081,6.41504 -6.62774,0 5.79928,1.60375 -8.28468,8.0188 7.4562,-4.0094 -5.79926,11.22632 c 2.24546,-3.18238 4.4549,-6.39017 6.62774,-9.62256 1.96309,-2.92035 3.89631,-5.86078 5.79926,-8.82067 l -2.4854,-7.21692"
         id="path3815"
         inkscape:path-effect="#path-effect3817"
         inkscape:original-d="m -436.03528,341.71189 -1.65693,10.42443 -0.82847,22.45264 2.4854,-17.64135 5.79927,12.02819 -3.31387,-12.83008 9.94161,2.40564 -7.45621,-4.81127 7.45621,-5.61316 -7.45621,4.00939 2.48541,-9.62255 -4.14234,8.82068 -10.77008,-7.21692 4.97081,6.41504 -6.62774,0 5.79928,1.60375 -8.28468,8.0188 7.4562,-4.0094 -5.79926,11.22632 6.62774,-9.62256 5.79926,-8.82067 z"
         inkscape:connector-curvature="0" />
    </g>
  </g>
</svg>
