<svg width="512" height="512" viewBox="0 0 512 512" fill="none" xmlns="http://www.w3.org/2000/svg">
<path d="M282.086 56.5071H229.913V240.111H282.086V56.5071Z" fill="#D64170"/>
<path d="M459.111 51.2029H52.8896V111.228H459.111V51.2029Z" fill="#E1465E"/>
<path d="M70.0832 248.927H135.48L134.609 259.533H68.8672L70.0832 248.927Z" fill="#D64170"/>
<path d="M443.123 259.533H377.384L376.52 248.927H441.917L443.123 259.533Z" fill="#D64170"/>
<path d="M486.048 58.268H25.952L0 0H512L486.048 58.268Z" fill="#5F3E3F"/>
<path d="M150.348 110.36L149.483 120.963L139.009 248.927V248.938L138.144 259.533L137.847 263.062L127.082 394.871H53.4814L68.4694 263.062L68.8734 259.533L70.0884 248.938V248.927L84.6424 120.963L85.8424 110.36L89.1634 81.2229H149.2L150.348 110.36Z" fill="#E1465E"/>
<path d="M458.515 394.871H384.911L374.138 263.062L373.869 259.533L372.99 248.938V248.927L362.53 120.963L361.659 110.36L362.799 81.2229H422.839L426.149 110.36L427.361 120.963L441.924 248.927V248.938L443.519 263.062L458.515 394.871Z" fill="#E1465E"/>
<path d="M47.3789 448.444H122.702L127.083 394.871H53.4669L47.3789 448.444Z" fill="#5F3E3F"/>
<path d="M384.917 394.871L389.298 448.444H464.624L458.522 394.871H384.917Z" fill="#5F3E3F"/>
<path d="M85.8368 110.36H150.341L149.47 120.963H84.6348L85.8368 110.36Z" fill="#D64170"/>
<path d="M282.086 110.36H229.913V120.962H282.086V110.36Z" fill="#C93963"/>
<path d="M427.354 120.963H362.53L361.651 110.36H426.156L427.354 120.963Z" fill="#D64170"/>
<path d="M70.0887 248.938H139.01L138.145 259.533L137.848 263.062H68.4697L70.0887 248.938Z" fill="#D64170"/>
<path d="M443.519 263.062H374.138L373.869 259.533L372.99 248.938H441.924L443.519 263.062Z" fill="#D64170"/>
<path d="M501.994 192.445H10.0039V252.47H501.994V192.445Z" fill="#E1465E"/>
</svg>
