<svg width="60px" height="60px" viewBox="0 0 509 509" fill="none" xmlns="http://www.w3.org/2000/svg">
<g clip-path="url(#clip0_2056_662)">
<path d="M33.7998 216.251V486.851C33.7998 498.551 43.2998 508.051 54.9998 508.051H453.1C464.8 508.051 474.3 498.551 474.3 486.851V216.251H33.7998Z" fill="#FFD15C"/>
<path d="M377.9 14.551C358.9 -4.14899 328.8 -4.84899 310.7 12.951C298.1 25.251 266 71.451 254 104.751C242 71.451 209.9 25.251 197.3 12.951C179.2 -4.84899 149.1 -4.14899 130.1 14.551C111.1 33.251 110.3 62.851 128.4 80.651C146.3 98.151 233.3 154.251 254 137.851C274.7 154.251 361.7 98.151 379.6 80.651C397.7 62.851 396.9 33.251 377.9 14.551ZM151.9 57.551C146.8 52.551 147.5 43.551 153.6 37.651C158 33.351 162.8 32.651 165.3 32.651C167.7 32.651 171.1 33.251 173.9 35.951C183.8 45.751 202.9 74.451 214.8 97.751C191.2 86.051 161.9 67.351 151.9 57.551ZM356.1 57.551C346.2 67.351 316.9 86.051 293.2 97.751C305.2 74.551 324.2 45.751 334.1 35.951C336.9 33.251 340.3 32.651 342.7 32.651C345.2 32.651 350 33.251 354.4 37.651C360.4 43.551 361.2 52.551 356.1 57.551Z" fill="#F1543F"/>
<path d="M486.8 118.351H21.2C9.5 118.351 0 127.851 0 139.551V194.951C0 206.651 9.5 216.151 21.2 216.151H486.9C498.6 216.151 508.1 206.651 508.1 194.951V139.551C508 127.851 498.5 118.351 486.8 118.351Z" fill="#F8B64C"/>
<path d="M305.4 118.351H202.7V508.051H305.4V118.351Z" fill="#FF7058"/>
<path opacity="0.2" d="M474.2 216.251H33.7998V230.351H474.2V216.251Z" fill="#C47920"/>
</g>
<defs>
<clipPath id="clip0_2056_662">
<rect width="508.1" height="508.1" fill="white"/>
</clipPath>
</defs>
</svg>
