<svg width="30" height="30" viewBox="0 0 60 60" fill="none" xmlns="http://www.w3.org/2000/svg">
<g clip-path="url(#clip0_1906_560)">
<path d="M19.995 7.99488V4.00488H16.005H12V7.99488H16.005H19.995Z" fill="white"/>
<path d="M24.0001 7.995H28.0051V4.005H31.9951V0H28.0051H24.0001H19.9951V4.005H24.0001V7.995Z" fill="white"/>
<path d="M12.0001 7.99512H7.99512V12.0001H12.0001V7.99512Z" fill="white"/>
<path d="M24.0001 7.99512H19.9951V12.0001H24.0001V7.99512Z" fill="white"/>
<path d="M16.0049 16.005V19.995V24V28.005V31.995H19.9949V28.005V24V19.995V16.005V12H16.0049V16.005Z" fill="white"/>
<path d="M7.99488 16.005V12H4.00488V16.005V19.995H7.99488V16.005Z" fill="white"/>
<path d="M55.9949 28.0049V31.9949H52.0049V35.9999H55.9949V40.0049H59.9999V35.9999V31.9949V28.0049H55.9949Z" fill="white"/>
<path d="M4.005 31.9951V28.0051V24.0001V19.9951H0V24.0001V28.0051V31.9951V36.0001V40.0051H4.005V36.0001V31.9951Z" fill="white"/>
<path d="M24.0001 31.9951H19.9951V36.0001H24.0001V31.9951Z" fill="white"/>
<path d="M28.005 36H24V40.005H28.005V36Z" fill="white"/>
<path d="M52.005 36H48V40.005H52.005V36Z" fill="white"/>
<path d="M7.99488 40.0049H4.00488V43.9949V47.9999H7.99488V43.9949V40.0049Z" fill="white"/>
<path d="M31.9949 43.9949H35.9999H40.0049H43.9949H47.9999V40.0049H43.9949H40.0049H35.9999H31.9949H28.0049V43.9949H31.9949Z" fill="white"/>
<path d="M52.0049 43.9949V47.9999H55.9949V43.9949V40.0049H52.0049V43.9949Z" fill="white"/>
<path d="M12.0001 48H7.99512V52.005H12.0001V48Z" fill="white"/>
<path d="M52.005 48H48V52.005H52.005V48Z" fill="white"/>
<path d="M16.005 52.0049H12V55.9949H16.005H19.995V52.0049H16.005Z" fill="white"/>
<path d="M40.0049 52.0049V55.9949H43.9949H47.9999V52.0049H43.9949H40.0049Z" fill="white"/>
<path d="M31.9951 55.9951H28.0051H24.0001H19.9951V60.0001H24.0001H28.0051H31.9951H36.0001H40.0051V55.9951H36.0001H31.9951Z" fill="white"/>
</g>
<defs>
<clipPath id="clip0_1906_560">
<rect width="60" height="60" fill="white"/>
</clipPath>
</defs>
</svg>
