<svg width="30" height="30" viewBox="0 0 61 60" fill="none" xmlns="http://www.w3.org/2000/svg">
<g clip-path="url(#clip0_2055_611)">
<path d="M20.7617 11.2408C20.7617 6.06302 24.9598 1.86583 30.1367 1.86583C35.3136 1.86583 39.5117 6.06302 39.5117 11.2408V22.4908H37.6367V11.2408C37.6367 7.09895 34.2786 3.74083 30.1367 3.74083C25.9948 3.74083 22.6367 7.09895 22.6367 11.2408V22.4908H20.7617V11.2408Z" fill="#F9EBB2"/>
<path d="M9.51172 56.2408C9.51172 57.2758 10.3517 58.1158 11.3867 58.1158H48.8867C49.9217 58.1158 50.7617 57.2758 50.7617 56.2408V54.3658H9.51172V56.2408Z" fill="#45AAB8"/>
<path d="M49.8242 20.6158H41.3867V23.4283C41.3867 23.9468 40.9677 24.3658 40.4492 24.3658H36.6992C36.1808 24.3658 35.7617 23.9468 35.7617 23.4283V20.6158H24.5117V23.4283C24.5117 23.9468 24.0927 24.3658 23.5742 24.3658H19.8242C19.3058 24.3658 18.8867 23.9468 18.8867 23.4283V20.6158H10.4492C9.93078 20.6158 9.51172 21.0349 9.51172 21.5533V52.4908H50.7617V21.5533C50.7617 21.0349 50.3427 20.6158 49.8242 20.6158Z" fill="#45AAB8"/>
<path d="M50.7617 18.7408H41.3867V11.2408C41.3867 5.02802 36.3495 -0.00917053 30.1367 -0.00917053C23.9239 -0.00917053 18.8867 5.02802 18.8867 11.2408V18.7408H9.51172C8.47578 18.7408 7.63672 19.5799 7.63672 20.6158V56.2408C7.63672 58.3136 9.31391 59.9908 11.3867 59.9908H48.8867C50.9595 59.9908 52.6367 58.3136 52.6367 56.2408V20.6158C52.6367 19.5799 51.7977 18.7408 50.7617 18.7408ZM20.7617 11.2408C20.7617 6.06302 24.9598 1.86583 30.1367 1.86583C35.3136 1.86583 39.5117 6.06302 39.5117 11.2408V22.4908H37.6367V11.2408C37.6367 7.09895 34.2786 3.74083 30.1367 3.74083C25.9948 3.74083 22.6367 7.09895 22.6367 11.2408V22.4908H20.7617V11.2408ZM35.7617 11.2408V18.7408H24.5117V11.2408C24.5117 8.13395 27.0308 5.61583 30.1367 5.61583C33.2427 5.61583 35.7617 8.13395 35.7617 11.2408ZM50.7617 56.2408C50.7617 57.2758 49.9217 58.1158 48.8867 58.1158H11.3867C10.3517 58.1158 9.51172 57.2758 9.51172 56.2408V54.3658H50.7617V56.2408ZM50.7617 52.4908H9.51172V21.5533C9.51172 21.0349 9.93078 20.6158 10.4492 20.6158H18.8867V23.4283C18.8867 23.9468 19.3058 24.3658 19.8242 24.3658H23.5742C24.0927 24.3658 24.5117 23.9468 24.5117 23.4283V20.6158H35.7617V23.4283C35.7617 23.9468 36.1808 24.3658 36.6992 24.3658H40.4492C40.9677 24.3658 41.3867 23.9468 41.3867 23.4283V20.6158H49.8242C50.3427 20.6158 50.7617 21.0349 50.7617 21.5533V52.4908Z" fill="#394240"/>
<path d="M33.8867 31.8658C32.8517 31.8658 31.9142 32.2849 31.2355 32.9646L30.1367 34.0558L29.038 32.9646C28.3592 32.2849 27.4217 31.8658 26.3867 31.8658C24.3158 31.8658 22.6367 33.5449 22.6367 35.6158C22.6367 36.6508 23.3052 37.6174 23.9848 38.2961L29.4739 43.7852C29.8405 44.1518 30.433 44.1518 30.7995 43.7852L36.2745 38.3102C36.9533 37.6315 37.6367 36.6508 37.6367 35.6158C37.6367 33.5449 35.9577 31.8658 33.8867 31.8658ZM34.9705 36.964L30.1367 41.7977L25.303 36.964C24.9627 36.6246 24.5117 36.1343 24.5117 35.6158C24.5117 34.5799 25.3517 33.7408 26.3867 33.7408C26.9052 33.7408 27.3739 33.9499 27.7123 34.2902L29.4739 36.0443C29.8405 36.4108 30.433 36.4108 30.7995 36.0443L32.5611 34.2902C32.8995 33.9499 33.3683 33.7408 33.8867 33.7408C34.9217 33.7408 35.7617 34.5799 35.7617 35.6158C35.7617 36.1343 35.3108 36.6246 34.9705 36.964Z" fill="#394240"/>
<path d="M34.9705 36.964L30.1367 41.7977L25.303 36.964C24.9627 36.6246 24.5117 36.1343 24.5117 35.6158C24.5117 34.5799 25.3517 33.7408 26.3867 33.7408C26.9052 33.7408 27.3739 33.9499 27.7123 34.2902L29.4739 36.0443C29.8405 36.4108 30.433 36.4108 30.7995 36.0443L32.5611 34.2902C32.8995 33.9499 33.3683 33.7408 33.8867 33.7408C34.9217 33.7408 35.7617 34.5799 35.7617 35.6158C35.7617 36.1343 35.3108 36.6246 34.9705 36.964Z" fill="#F76D57"/>
<path opacity="0.2" d="M50.7617 56.2408C50.7617 57.2758 49.9217 58.1158 48.8867 58.1158H11.3867C10.3517 58.1158 9.51172 57.2758 9.51172 56.2408V54.3658H50.7617V56.2408Z" fill="black"/>
</g>
<defs>
<clipPath id="clip0_2055_611">
<rect width="60" height="60" fill="white" transform="translate(0.136719 -0.00917053)"/>
</clipPath>
</defs>
</svg>
