<svg width="30" height="30" viewBox="0 0 100 100" fill="none" xmlns="http://www.w3.org/2000/svg">
<path d="M83.9504 7.314L67.9444 23.322L28.6354 13.13L22.8234 18.956L54.8424 36.425L38.8264 52.441L22.8764 48.481L20.1504 51.215L42.8564 65.871L63.5714 45.151L81.0374 77.173L86.8584 71.356L76.6734 32.052L92.6764 16.04C95.0974 13.623 95.0974 9.728 92.6804 7.306C90.2674 4.897 86.3684 4.897 83.9504 7.314Z" fill="#53C2BA"/>
<path d="M28.6353 13.13L22.8223 18.956L54.8413 36.425L67.9443 23.322L28.6353 13.13Z" fill="#53C2BA"/>
<path d="M20.324 20.7396L4.99902 36.0646L5.71532 36.7809L21.0403 21.4559L20.324 20.7396Z" fill="#F1B57D"/>
<path d="M25.1082 23.35L12.8252 35.633L13.5415 36.3493L25.8245 24.0663L25.1082 23.35Z" fill="#F1B57D"/>
<path d="M29.8923 25.9601L21.9756 33.8768L22.6919 34.5931L30.6086 26.6764L29.8923 25.9601Z" fill="#F1B57D"/>
<path d="M34.6767 28.5684L29.0566 34.1885L29.7729 34.9048L35.393 29.2847L34.6767 28.5684Z" fill="#F1B57D"/>
<path d="M39.4609 31.1783L35.499 35.1401L36.2153 35.8564L40.1772 31.8945L39.4609 31.1783Z" fill="#F1B57D"/>
<path d="M43.8614 33.5797L41.5039 35.9372L42.2202 36.6535L44.5777 34.296L43.8614 33.5797Z" fill="#F1B57D"/>
<path d="M47.9982 35.978L46.3584 37.6177L47.0747 38.334L48.7145 36.6943L47.9982 35.978Z" fill="#F1B57D"/>
<path d="M78.5415 78.9607L63.2158 94.2864L63.9321 95.0027L79.2578 79.677L78.5415 78.9607Z" fill="#F1B57D"/>
<path d="M75.9298 74.177L63.6475 86.4593L64.3638 87.1756L76.6461 74.8933L75.9298 74.177Z" fill="#F1B57D"/>
<path d="M73.321 69.3912L65.4043 77.3079L66.1206 78.0242L74.0373 70.1075L73.321 69.3912Z" fill="#F1B57D"/>
<path d="M70.7099 64.6078L65.0898 70.2278L65.8061 70.9441L71.4262 65.3241L70.7099 64.6078Z" fill="#F1B57D"/>
<path d="M68.0998 59.8178L64.1387 63.7789L64.855 64.4952L68.8161 60.534L68.0998 59.8178Z" fill="#F1B57D"/>
<path d="M65.6983 55.4207L63.3408 57.7782L64.0571 58.4945L66.4146 56.137L65.6983 55.4207Z" fill="#F1B57D"/>
<path d="M63.3038 51.2849L61.6641 52.9246L62.3804 53.6409L64.0201 52.0011L63.3038 51.2849Z" fill="#F1B57D"/>
<path d="M85.8841 11.48C85.6861 11.282 85.3661 11.282 85.1681 11.48L83.9141 12.734C83.7161 12.932 83.7161 13.252 83.9141 13.45C84.0131 13.549 84.1431 13.598 84.2721 13.598C84.4011 13.598 84.5311 13.549 84.6301 13.45L85.8841 12.196C86.0821 11.998 86.0821 11.678 85.8841 11.48Z" fill="white"/>
<path d="M54.8238 41.825L52.1788 44.47C51.9808 44.668 51.9808 44.988 52.1788 45.186C52.2778 45.285 52.4068 45.334 52.5368 45.334C52.6668 45.334 52.7958 45.285 52.8948 45.186L55.5398 42.541C55.7378 42.343 55.7378 42.023 55.5398 41.825C55.3418 41.627 55.0218 41.627 54.8238 41.825Z" fill="white"/>
<path d="M65.4019 31.246L62.7569 33.891C62.5589 34.089 62.5589 34.409 62.7569 34.607C62.8559 34.706 62.9849 34.755 63.1149 34.755C63.2449 34.755 63.3739 34.706 63.4729 34.607L66.1179 31.962C66.3159 31.764 66.3159 31.444 66.1179 31.246C65.9209 31.049 65.5999 31.049 65.4019 31.246Z" fill="white"/>
<path d="M70.6919 25.957L68.0469 28.602C67.8489 28.8 67.8489 29.12 68.0469 29.318C68.1459 29.417 68.2759 29.466 68.4049 29.466C68.5339 29.466 68.6639 29.417 68.7629 29.318L71.4079 26.673C71.6059 26.475 71.6059 26.155 71.4079 25.957C71.2099 25.759 70.8899 25.759 70.6919 25.957Z" fill="white"/>
<path d="M81.2701 15.378L78.6251 18.023C78.4271 18.221 78.4271 18.541 78.6251 18.739C78.7241 18.838 78.8541 18.887 78.9831 18.887C79.1121 18.887 79.2421 18.838 79.3411 18.739L81.9861 16.094C82.1841 15.896 82.1841 15.576 81.9861 15.378C81.7881 15.18 81.4681 15.18 81.2701 15.378Z" fill="white"/>
<path d="M75.981 20.667L73.336 23.312C73.138 23.51 73.138 23.83 73.336 24.028C73.435 24.127 73.565 24.176 73.694 24.176C73.823 24.176 73.953 24.127 74.052 24.028L76.697 21.383C76.895 21.185 76.895 20.865 76.697 20.667C76.499 20.47 76.179 20.47 75.981 20.667Z" fill="white"/>
<path d="M60.1128 36.536L57.4678 39.181C57.2698 39.379 57.2698 39.699 57.4678 39.897C57.5668 39.996 57.6958 40.045 57.8258 40.045C57.9558 40.045 58.0848 39.996 58.1838 39.897L60.8288 37.252C61.0268 37.054 61.0268 36.734 60.8288 36.536C60.6318 36.338 60.3108 36.338 60.1128 36.536Z" fill="white"/>
<path d="M49.5357 47.115L46.8907 49.76C46.6927 49.958 46.6927 50.278 46.8907 50.476C46.9897 50.575 47.1187 50.625 47.2487 50.625C47.3787 50.625 47.5077 50.575 47.6067 50.476L50.2517 47.831C50.4497 47.633 50.4497 47.313 50.2517 47.115C50.0537 46.917 49.7337 46.917 49.5357 47.115Z" fill="white"/>
<path d="M44.2462 52.404L42.9932 53.657C42.7952 53.855 42.7952 54.175 42.9932 54.373C43.0922 54.472 43.2222 54.521 43.3512 54.521C43.4812 54.521 43.6102 54.472 43.7092 54.373L44.9622 53.12C45.1602 52.922 45.1602 52.602 44.9622 52.404C44.7642 52.206 44.4442 52.207 44.2462 52.404Z" fill="white"/>
<path d="M94.9994 11.674C94.9994 9.89301 94.3034 8.21501 93.0384 6.94701C90.4344 4.34701 86.1974 4.35101 83.5924 6.95601L67.7914 22.759L28.7624 12.64C28.5894 12.594 28.4034 12.645 28.2764 12.772L22.4634 18.598C22.3504 18.711 22.2974 18.871 22.3214 19.028C22.3444 19.186 22.4394 19.324 22.5804 19.4L54.0044 36.545L38.6704 51.881L22.9984 47.99C22.8254 47.948 22.6434 47.998 22.5174 48.124L19.7914 50.858C19.6834 50.966 19.6304 51.118 19.6464 51.27C19.6624 51.422 19.7464 51.559 19.8754 51.641L42.5814 66.297C42.7804 66.426 43.0444 66.399 43.2144 66.23L63.4504 45.988L80.5924 77.416C80.6694 77.556 80.8064 77.652 80.9644 77.675C80.9884 77.678 81.0124 77.68 81.0364 77.68C81.1694 77.68 81.2984 77.628 81.3944 77.532L87.2154 71.715C87.3424 71.588 87.3924 71.403 87.3474 71.23L77.2364 32.205L93.0334 16.398C94.3014 15.133 94.9994 13.456 94.9994 11.674ZM28.7894 13.693L66.9604 23.59L54.7514 35.799L23.6584 18.835L28.7894 13.693ZM76.9194 31.089L75.9674 27.841L74.9954 28.126L76.1874 32.195L86.2954 71.204L81.1574 76.338L64.0154 44.908C63.9384 44.768 63.8004 44.672 63.6434 44.649C63.6194 44.646 63.5954 44.644 63.5714 44.644C63.4374 44.644 63.3084 44.697 63.2134 44.792L42.7874 65.224L20.9514 51.129L23.0324 49.042L38.7044 52.933C38.8774 52.976 39.0594 52.925 39.1844 52.799L55.1994 36.783L68.3024 23.68L84.3094 7.67201C86.5194 5.46201 90.1144 5.45901 92.3224 7.66301C93.3964 8.73901 93.9874 10.163 93.9874 11.674C93.9874 13.185 93.3944 14.608 92.3194 15.681L76.9194 31.089Z" fill="#136296"/>
</svg>
